<svg xmlns="http://www.w3.org/2000/svg" width="1180" height="1000" viewBox="0 0 1180 1000"><defs><marker id="ah" markerWidth="10" markerHeight="10" refX="7" refY="3.2" orient="auto" markerUnits="userSpaceOnUse"><path d="M0,0 L8,3.2 L0,6.4 z" fill="#5A6474"/></marker></defs><rect width="1180" height="1000" fill="#FFFFFF"/><text x="60" y="36" font-family="Segoe UI, Arial, sans-serif" font-size="15" fill="#00A6A6" text-anchor="start" font-weight="700" letter-spacing="2">LLMOPS LIFECYCLE</text><text x="60" y="70" font-family="Segoe UI, Arial, sans-serif" font-size="30" fill="#121F3D" text-anchor="start" font-weight="800">A continuous, governed improvement loop</text><rect x="60" y="84" width="66" height="5" rx="2.5" fill="#F5A623"/><path d="M672.2724133595217,275.0 Q711.936376852849,348.8 784.8557158514988,365.0" fill="none" stroke="#F5A623" stroke-width="3" marker-end="url(#ah)"/><path d="M867.1281292110205,470.0 Q833.872753705698,560.0 867.1281292110205,650.0" fill="none" stroke="#F5A623" stroke-width="3" marker-end="url(#ah)"/><path d="M784.8557158514988,755.0 Q711.936376852849,771.2 672.2724133595217,845.0" fill="none" stroke="#F5A623" stroke-width="3" marker-end="url(#ah)"/><path d="M507.7275866404783,845.0 Q468.063623147151,771.2 395.1442841485013,755.0" fill="none" stroke="#F5A623" stroke-width="3" marker-end="url(#ah)"/><path d="M312.8718707889796,650.0 Q346.1272462943021,560.0 312.87187078897966,470.0" fill="none" stroke="#F5A623" stroke-width="3" marker-end="url(#ah)"/><path d="M395.14428414850136,365.0 Q468.0636231471511,348.8 507.7275866404783,275.0" fill="none" stroke="#F5A623" stroke-width="3" marker-end="url(#ah)"/><circle cx="590" cy="560" r="150" fill="#121F3D"/><circle cx="590" cy="520" r="26" fill="rgba(255,255,255,0.15)"/><path d="M590,505.44 L602.48,511.68 V522.08 Q602.48,532.48 590,535.6 Q577.52,532.48 577.52,522.08 V511.68 Z" fill="none" stroke="#FFFFFF" stroke-width="2.2"/><text x="590" y="594.3" font-family="Segoe UI, Arial, sans-serif" font-size="20" fill="#FFFFFF" text-anchor="middle" font-weight="800">Governance &amp;</text><text x="590" y="619.3" font-family="Segoe UI, Arial, sans-serif" font-size="20" fill="#FFFFFF" text-anchor="middle" font-weight="800">Responsible AI</text><rect x="485.0" y="184.0" width="210" height="120" rx="14" fill="#0B1430" opacity="0.10"/><rect x="485.0" y="180.0" width="210" height="120" rx="14" fill="#FFFFFF" stroke="#E1E6F0" stroke-width="1.5"/><path d="M499.0,180.0 h182 a14,14 0 0 1 14,14 v7 h-210 v-7 a14,14 0 0 1 14,-14 z" fill="#2EC4D3"/><circle cx="523.0" cy="240.0" r="20" fill="#2EC4D3"/><ellipse cx="523.0" cy="233.6" rx="8.8" ry="3.52" fill="none" stroke="#FFFFFF" stroke-width="2"/><path d="M514.2,233.6 V246.4 a8.8,3.52 0 0 0 17.6,0 V233.6" fill="none" stroke="#FFFFFF" stroke-width="2"/><text x="555.0" y="234.0" font-family="Segoe UI, Arial, sans-serif" font-size="18" fill="#121F3D" text-anchor="start" font-weight="800">Curate</text><text x="555.0" y="258.0" font-family="Segoe UI, Arial, sans-serif" font-size="11.5" fill="#5A6474" text-anchor="start" font-weight="normal">data &amp; knowledge</text><rect x="762.1281292110205" y="344.0" width="210" height="120" rx="14" fill="#0B1430" opacity="0.10"/><rect x="762.1281292110205" y="340.0" width="210" height="120" rx="14" fill="#FFFFFF" stroke="#E1E6F0" stroke-width="1.5"/><path d="M776.1281292110205,340.0 h182 a14,14 0 0 1 14,14 v7 h-210 v-7 a14,14 0 0 1 14,-14 z" fill="#00A6A6"/><circle cx="800.1281292110205" cy="400.0" r="20" fill="#00A6A6"/><circle cx="800.1281292110205" cy="400.0" r="5.44" fill="none" stroke="#FFFFFF" stroke-width="2.2"/><line x1="807.3281292110205" y1="400.0" x2="810.0481292110204" y2="400.0" stroke="#FFFFFF" stroke-width="2.2"/><line x1="805.2192980355636" y1="405.09116882454316" x2="807.142628480391" y2="407.01449926937056" stroke="#FFFFFF" stroke-width="2.2"/><line x1="800.1281292110205" y1="407.2" x2="800.1281292110205" y2="409.92" stroke="#FFFFFF" stroke-width="2.2"/><line x1="795.0369603864773" y1="405.09116882454316" x2="793.11362994165" y2="407.01449926937056" stroke="#FFFFFF" stroke-width="2.2"/><line x1="792.9281292110204" y1="400.0" x2="790.2081292110205" y2="400.0" stroke="#FFFFFF" stroke-width="2.2"/><line x1="795.0369603864773" y1="394.90883117545684" x2="793.11362994165" y2="392.98550073062944" stroke="#FFFFFF" stroke-width="2.2"/><line x1="800.1281292110205" y1="392.8" x2="800.1281292110205" y2="390.08" stroke="#FFFFFF" stroke-width="2.2"/><line x1="805.2192980355636" y1="394.90883117545684" x2="807.142628480391" y2="392.98550073062944" stroke="#FFFFFF" stroke-width="2.2"/><text x="832.1281292110205" y="394.0" font-family="Segoe UI, Arial, sans-serif" font-size="18" fill="#121F3D" text-anchor="start" font-weight="800">Engineer</text><text x="832.1281292110205" y="418.0" font-family="Segoe UI, Arial, sans-serif" font-size="11.5" fill="#5A6474" text-anchor="start" font-weight="normal">versioned prompts &amp; agents</text><rect x="762.1281292110205" y="664.0" width="210" height="120" rx="14" fill="#0B1430" opacity="0.10"/><rect x="762.1281292110205" y="660.0" width="210" height="120" rx="14" fill="#FFFFFF" stroke="#E1E6F0" stroke-width="1.5"/><path d="M776.1281292110205,660.0 h182 a14,14 0 0 1 14,14 v7 h-210 v-7 a14,14 0 0 1 14,-14 z" fill="#1B3A6B"/><circle cx="800.1281292110205" cy="720.0" r="20" fill="#1B3A6B"/><path d="M788.9281292110204,725.6 a11.2,11.2 0 1 1 22.4,0" fill="none" stroke="#FFFFFF" stroke-width="2.2"/><line x1="800.1281292110205" y1="725.6" x2="807.3281292110205" y2="715.2" stroke="#FFFFFF" stroke-width="2.2"/><text x="832.1281292110205" y="714.0" font-family="Segoe UI, Arial, sans-serif" font-size="18" fill="#121F3D" text-anchor="start" font-weight="800">Evaluate</text><text x="832.1281292110205" y="738.0" font-family="Segoe UI, Arial, sans-serif" font-size="11.5" fill="#5A6474" text-anchor="start" font-weight="normal">offline · online · red-team</text><rect x="485.0" y="824.0" width="210" height="120" rx="14" fill="#0B1430" opacity="0.10"/><rect x="485.0" y="820.0" width="210" height="120" rx="14" fill="#FFFFFF" stroke="#E1E6F0" stroke-width="1.5"/><path d="M499.0,820.0 h182 a14,14 0 0 1 14,14 v7 h-210 v-7 a14,14 0 0 1 14,-14 z" fill="#3E5C99"/><circle cx="523.0" cy="880.0" r="20" fill="#3E5C99"/><circle cx="515.0" cy="880.0" r="3.2" fill="#FFFFFF"/><circle cx="531.0" cy="873.6" r="3.2" fill="#FFFFFF"/><circle cx="531.0" cy="886.4" r="3.2" fill="#FFFFFF"/><line x1="517.88" y1="879.2" x2="528.12" y2="874.4" stroke="#FFFFFF" stroke-width="2"/><line x1="517.88" y1="880.8" x2="528.12" y2="885.6" stroke="#FFFFFF" stroke-width="2"/><text x="555.0" y="874.0" font-family="Segoe UI, Arial, sans-serif" font-size="18" fill="#121F3D" text-anchor="start" font-weight="800">Ship</text><text x="555.0" y="898.0" font-family="Segoe UI, Arial, sans-serif" font-size="11.5" fill="#5A6474" text-anchor="start" font-weight="normal">CI/CD · canary · rollback</text><rect x="207.8718707889796" y="664.0" width="210" height="120" rx="14" fill="#0B1430" opacity="0.10"/><rect x="207.8718707889796" y="660.0" width="210" height="120" rx="14" fill="#FFFFFF" stroke="#E1E6F0" stroke-width="1.5"/><path d="M221.8718707889796,660.0 h182 a14,14 0 0 1 14,14 v7 h-210 v-7 a14,14 0 0 1 14,-14 z" fill="#5A6474"/><circle cx="245.8718707889796" cy="720.0" r="20" fill="#5A6474"/><circle cx="245.8718707889796" cy="720.0" r="5.44" fill="none" stroke="#FFFFFF" stroke-width="2.2"/><line x1="253.0718707889796" y1="720.0" x2="255.7918707889796" y2="720.0" stroke="#FFFFFF" stroke-width="2.2"/><line x1="250.96303961352274" y1="725.0911688245432" x2="252.88637005835017" y2="727.0144992693705" stroke="#FFFFFF" stroke-width="2.2"/><line x1="245.8718707889796" y1="727.2" x2="245.8718707889796" y2="729.92" stroke="#FFFFFF" stroke-width="2.2"/><line x1="240.78070196443647" y1="725.0911688245432" x2="238.85737151960905" y2="727.0144992693705" stroke="#FFFFFF" stroke-width="2.2"/><line x1="238.67187078897962" y1="720.0" x2="235.95187078897962" y2="720.0" stroke="#FFFFFF" stroke-width="2.2"/><line x1="240.78070196443647" y1="714.9088311754568" x2="238.85737151960905" y2="712.9855007306295" stroke="#FFFFFF" stroke-width="2.2"/><line x1="245.8718707889796" y1="712.8" x2="245.8718707889796" y2="710.08" stroke="#FFFFFF" stroke-width="2.2"/><line x1="250.96303961352274" y1="714.9088311754568" x2="252.88637005835017" y2="712.9855007306295" stroke="#FFFFFF" stroke-width="2.2"/><text x="277.8718707889796" y="714.0" font-family="Segoe UI, Arial, sans-serif" font-size="18" fill="#121F3D" text-anchor="start" font-weight="800">Serve</text><text x="277.8718707889796" y="738.0" font-family="Segoe UI, Arial, sans-serif" font-size="11.5" fill="#5A6474" text-anchor="start" font-weight="normal">gateway · quotas · cache</text><rect x="207.87187078897966" y="344.0" width="210" height="120" rx="14" fill="#0B1430" opacity="0.10"/><rect x="207.87187078897966" y="340.0" width="210" height="120" rx="14" fill="#FFFFFF" stroke="#E1E6F0" stroke-width="1.5"/><path d="M221.87187078897966,340.0 h182 a14,14 0 0 1 14,14 v7 h-210 v-7 a14,14 0 0 1 14,-14 z" fill="#2E9E5B"/><circle cx="245.87187078897966" cy="400.0" r="20" fill="#2E9E5B"/><path d="M234.67187078897967,405.6 a11.2,11.2 0 1 1 22.4,0" fill="none" stroke="#FFFFFF" stroke-width="2.2"/><line x1="245.87187078897966" y1="405.6" x2="253.07187078897965" y2="395.2" stroke="#FFFFFF" stroke-width="2.2"/><text x="277.87187078897966" y="394.0" font-family="Segoe UI, Arial, sans-serif" font-size="18" fill="#121F3D" text-anchor="start" font-weight="800">Observe</text><text x="277.87187078897966" y="418.0" font-family="Segoe UI, Arial, sans-serif" font-size="11.5" fill="#5A6474" text-anchor="start" font-weight="normal">quality · cost · drift</text></svg>