<svg xmlns="http://www.w3.org/2000/svg" width="1660" height="900" viewBox="0 0 1660 900"><defs><marker id="ah" markerWidth="10" markerHeight="10" refX="7" refY="3.2" orient="auto" markerUnits="userSpaceOnUse"><path d="M0,0 L8,3.2 L0,6.4 z" fill="#5A6474"/></marker></defs><rect width="1660" height="900" fill="#FFFFFF"/><text x="60" y="36" font-family="Segoe UI, Arial, sans-serif" font-size="15" fill="#00A6A6" text-anchor="start" font-weight="700" letter-spacing="2">PATTERN CATALOG</text><text x="60" y="70" font-family="Segoe UI, Arial, sans-serif" font-size="30" fill="#121F3D" text-anchor="start" font-weight="800">GenAI is far more than chatbots</text><rect x="60" y="84" width="66" height="5" rx="2.5" fill="#F5A623"/><rect x="60" y="154" width="296" height="210" rx="14" fill="#0B1430" opacity="0.10"/><rect x="60" y="150" width="296" height="210" rx="14" fill="#FFFFFF" stroke="#E1E6F0" stroke-width="1.5"/><path d="M74,150 h268 a14,14 0 0 1 14,14 v8 h-296 v-8 a14,14 0 0 1 14,-14 z" fill="#00A6A6"/><circle cx="102" cy="202" r="22" fill="#00A6A6"/><rect x="97.072" y="191.44" width="9.856000000000002" height="14.96" rx="4.928000000000001" fill="#FFFFFF"/><path d="M93.2,202 a8.8,8.8 0 0 0 17.6,0" fill="none" stroke="#FFFFFF" stroke-width="2"/><line x1="102" y1="210.8" x2="102" y2="216.08" stroke="#FFFFFF" stroke-width="2"/><text x="228.0" y="197.725" font-family="Segoe UI, Arial, sans-serif" font-size="15" fill="#121F3D" text-anchor="middle" font-weight="700">Conversational</text><text x="228.0" y="216.475" font-family="Segoe UI, Arial, sans-serif" font-size="15" fill="#121F3D" text-anchor="middle" font-weight="700">copilot</text><text x="84" y="268" font-family="Segoe UI, Arial, sans-serif" font-size="12.5" fill="#5A6474" text-anchor="start" font-weight="normal">chat &amp; voice assist</text><rect x="84" y="290" width="248" height="40" rx="9" fill="#F4F6FA"/><text x="208.0" y="315" font-family="Segoe UI, Arial, sans-serif" font-size="11.5" fill="#00A6A6" text-anchor="middle" font-weight="600">reusable blueprint + eval suite</text><rect x="376" y="154" width="296" height="210" rx="14" fill="#0B1430" opacity="0.10"/><rect x="376" y="150" width="296" height="210" rx="14" fill="#FFFFFF" stroke="#E1E6F0" stroke-width="1.5"/><path d="M390,150 h268 a14,14 0 0 1 14,14 v8 h-296 v-8 a14,14 0 0 1 14,-14 z" fill="#1B3A6B"/><circle cx="418" cy="202" r="22" fill="#1B3A6B"/><circle cx="409.2" cy="202" r="3.5200000000000005" fill="#FFFFFF"/><circle cx="426.8" cy="194.96" r="3.5200000000000005" fill="#FFFFFF"/><circle cx="426.8" cy="209.04" r="3.5200000000000005" fill="#FFFFFF"/><line x1="412.368" y1="201.12" x2="423.632" y2="195.84" stroke="#FFFFFF" stroke-width="2"/><line x1="412.368" y1="202.88" x2="423.632" y2="208.16" stroke="#FFFFFF" stroke-width="2"/><text x="544.0" y="207.1" font-family="Segoe UI, Arial, sans-serif" font-size="15" fill="#121F3D" text-anchor="middle" font-weight="700">Agentic workflow</text><text x="400" y="268" font-family="Segoe UI, Arial, sans-serif" font-size="12.5" fill="#5A6474" text-anchor="start" font-weight="normal">multi-step, tool-using, durable</text><rect x="400" y="290" width="248" height="40" rx="9" fill="#F4F6FA"/><text x="524.0" y="315" font-family="Segoe UI, Arial, sans-serif" font-size="11.5" fill="#1B3A6B" text-anchor="middle" font-weight="600">reusable blueprint + eval suite</text><rect x="692" y="154" width="296" height="210" rx="14" fill="#0B1430" opacity="0.10"/><rect x="692" y="150" width="296" height="210" rx="14" fill="#FFFFFF" stroke="#E1E6F0" stroke-width="1.5"/><path d="M706,150 h268 a14,14 0 0 1 14,14 v8 h-296 v-8 a14,14 0 0 1 14,-14 z" fill="#3E5C99"/><circle cx="734" cy="202" r="22" fill="#3E5C99"/><ellipse cx="734" cy="194.96" rx="9.680000000000001" ry="3.8720000000000003" fill="none" stroke="#FFFFFF" stroke-width="2"/><path d="M724.32,194.96 V209.04 a9.680000000000001,3.8720000000000003 0 0 0 19.360000000000003,0 V194.96" fill="none" stroke="#FFFFFF" stroke-width="2"/><text x="860.0" y="197.725" font-family="Segoe UI, Arial, sans-serif" font-size="15" fill="#121F3D" text-anchor="middle" font-weight="700">Retrieval-augmented</text><text x="860.0" y="216.475" font-family="Segoe UI, Arial, sans-serif" font-size="15" fill="#121F3D" text-anchor="middle" font-weight="700">(RAG)</text><text x="716" y="268" font-family="Segoe UI, Arial, sans-serif" font-size="12.5" fill="#5A6474" text-anchor="start" font-weight="normal">grounded answers over knowledge</text><rect x="716" y="290" width="248" height="40" rx="9" fill="#F4F6FA"/><text x="840.0" y="315" font-family="Segoe UI, Arial, sans-serif" font-size="11.5" fill="#3E5C99" text-anchor="middle" font-weight="600">reusable blueprint + eval suite</text><rect x="1008" y="154" width="296" height="210" rx="14" fill="#0B1430" opacity="0.10"/><rect x="1008" y="150" width="296" height="210" rx="14" fill="#FFFFFF" stroke="#E1E6F0" stroke-width="1.5"/><path d="M1022,150 h268 a14,14 0 0 1 14,14 v8 h-296 v-8 a14,14 0 0 1 14,-14 z" fill="#7A4FB5"/><circle cx="1050" cy="202" r="22" fill="#7A4FB5"/><path d="M1042.608,191.44 h10.912 l4.224,4.224 v16.896 h-15.136000000000001 z" fill="none" stroke="#FFFFFF" stroke-width="2"/><line x1="1045.776" y1="199.36" x2="1054.224" y2="199.36" stroke="#FFFFFF" stroke-width="1.8"/><line x1="1045.776" y1="203.76" x2="1054.224" y2="203.76" stroke="#FFFFFF" stroke-width="1.8"/><line x1="1045.776" y1="208.16" x2="1054.224" y2="208.16" stroke="#FFFFFF" stroke-width="1.8"/><text x="1176.0" y="207.1" font-family="Segoe UI, Arial, sans-serif" font-size="15" fill="#121F3D" text-anchor="middle" font-weight="700">Document intelligence</text><text x="1032" y="268" font-family="Segoe UI, Arial, sans-serif" font-size="12.5" fill="#5A6474" text-anchor="start" font-weight="normal">extract · classify · validate</text><rect x="1032" y="290" width="248" height="40" rx="9" fill="#F4F6FA"/><text x="1156.0" y="315" font-family="Segoe UI, Arial, sans-serif" font-size="11.5" fill="#7A4FB5" text-anchor="middle" font-weight="600">reusable blueprint + eval suite</text><rect x="1324" y="154" width="296" height="210" rx="14" fill="#0B1430" opacity="0.10"/><rect x="1324" y="150" width="296" height="210" rx="14" fill="#FFFFFF" stroke="#E1E6F0" stroke-width="1.5"/><path d="M1338,150 h268 a14,14 0 0 1 14,14 v8 h-296 v-8 a14,14 0 0 1 14,-14 z" fill="#F5A623"/><circle cx="1366" cy="202" r="22" fill="#F5A623"/><rect x="1359.84" y="195.84" width="5.28" height="5.28" rx="2" fill="none" stroke="#FFFFFF" stroke-width="1.8"/><rect x="1359.84" y="202.88" width="5.28" height="5.28" rx="2" fill="none" stroke="#FFFFFF" stroke-width="1.8"/><rect x="1366.88" y="195.84" width="5.28" height="5.28" rx="2" fill="none" stroke="#FFFFFF" stroke-width="1.8"/><rect x="1366.88" y="202.88" width="5.28" height="5.28" rx="2" fill="none" stroke="#FFFFFF" stroke-width="1.8"/><text x="1492.0" y="197.725" font-family="Segoe UI, Arial, sans-serif" font-size="15" fill="#121F3D" text-anchor="middle" font-weight="700">Batch summarization</text><text x="1492.0" y="216.475" font-family="Segoe UI, Arial, sans-serif" font-size="15" fill="#121F3D" text-anchor="middle" font-weight="700">analytics</text><text x="1348" y="268" font-family="Segoe UI, Arial, sans-serif" font-size="12.5" fill="#5A6474" text-anchor="start" font-weight="normal">100% interaction analysis</text><rect x="1348" y="290" width="248" height="40" rx="9" fill="#F4F6FA"/><text x="1472.0" y="315" font-family="Segoe UI, Arial, sans-serif" font-size="11.5" fill="#F5A623" text-anchor="middle" font-weight="600">reusable blueprint + eval suite</text><rect x="60" y="388" width="296" height="210" rx="14" fill="#0B1430" opacity="0.10"/><rect x="60" y="384" width="296" height="210" rx="14" fill="#FFFFFF" stroke="#E1E6F0" stroke-width="1.5"/><path d="M74,384 h268 a14,14 0 0 1 14,14 v8 h-296 v-8 a14,14 0 0 1 14,-14 z" fill="#2E9E5B"/><circle cx="102" cy="436" r="22" fill="#2E9E5B"/><path d="M94.608,425.44 h10.912 l4.224,4.224 v16.896 h-15.136000000000001 z" fill="none" stroke="#FFFFFF" stroke-width="2"/><line x1="97.776" y1="433.36" x2="106.224" y2="433.36" stroke="#FFFFFF" stroke-width="1.8"/><line x1="97.776" y1="437.76" x2="106.224" y2="437.76" stroke="#FFFFFF" stroke-width="1.8"/><line x1="97.776" y1="442.16" x2="106.224" y2="442.16" stroke="#FFFFFF" stroke-width="1.8"/><text x="228.0" y="441.1" font-family="Segoe UI, Arial, sans-serif" font-size="15" fill="#121F3D" text-anchor="middle" font-weight="700">Structured extraction</text><text x="84" y="502" font-family="Segoe UI, Arial, sans-serif" font-size="12.5" fill="#5A6474" text-anchor="start" font-weight="normal">unstructured → structured data</text><rect x="84" y="524" width="248" height="40" rx="9" fill="#F4F6FA"/><text x="208.0" y="549" font-family="Segoe UI, Arial, sans-serif" font-size="11.5" fill="#2E9E5B" text-anchor="middle" font-weight="600">reusable blueprint + eval suite</text><rect x="376" y="388" width="296" height="210" rx="14" fill="#0B1430" opacity="0.10"/><rect x="376" y="384" width="296" height="210" rx="14" fill="#FFFFFF" stroke="#E1E6F0" stroke-width="1.5"/><path d="M390,384 h268 a14,14 0 0 1 14,14 v8 h-296 v-8 a14,14 0 0 1 14,-14 z" fill="#4A6AA8"/><circle cx="418" cy="436" r="22" fill="#4A6AA8"/><circle cx="418" cy="436" r="9.680000000000001" fill="none" stroke="#FFFFFF" stroke-width="2.2"/><line x1="418" y1="426.32" x2="418" y2="445.68" stroke="#FFFFFF" stroke-width="2"/><circle cx="414.128" cy="434.592" r="1.8" fill="#FFFFFF"/><circle cx="421.872" cy="438.112" r="1.8" fill="#FFFFFF"/><text x="544.0" y="441.1" font-family="Segoe UI, Arial, sans-serif" font-size="15" fill="#121F3D" text-anchor="middle" font-weight="700">Multimodal</text><text x="400" y="502" font-family="Segoe UI, Arial, sans-serif" font-size="12.5" fill="#5A6474" text-anchor="start" font-weight="normal">speech · image · document</text><rect x="400" y="524" width="248" height="40" rx="9" fill="#F4F6FA"/><text x="524.0" y="549" font-family="Segoe UI, Arial, sans-serif" font-size="11.5" fill="#4A6AA8" text-anchor="middle" font-weight="600">reusable blueprint + eval suite</text><rect x="692" y="388" width="296" height="210" rx="14" fill="#0B1430" opacity="0.10"/><rect x="692" y="384" width="296" height="210" rx="14" fill="#FFFFFF" stroke="#E1E6F0" stroke-width="1.5"/><path d="M706,384 h268 a14,14 0 0 1 14,14 v8 h-296 v-8 a14,14 0 0 1 14,-14 z" fill="#D65A7A"/><circle cx="734" cy="436" r="22" fill="#D65A7A"/><path d="M721.68,442.16 a12.32,12.32 0 1 1 24.64,0" fill="none" stroke="#FFFFFF" stroke-width="2.2"/><line x1="734" y1="442.16" x2="741.92" y2="430.72" stroke="#FFFFFF" stroke-width="2.2"/><text x="860.0" y="431.725" font-family="Segoe UI, Arial, sans-serif" font-size="15" fill="#121F3D" text-anchor="middle" font-weight="700">Decision support</text><text x="860.0" y="450.475" font-family="Segoe UI, Arial, sans-serif" font-size="15" fill="#121F3D" text-anchor="middle" font-weight="700">forecasting</text><text x="716" y="502" font-family="Segoe UI, Arial, sans-serif" font-size="12.5" fill="#5A6474" text-anchor="start" font-weight="normal">next-best-action · propensity</text><rect x="716" y="524" width="248" height="40" rx="9" fill="#F4F6FA"/><text x="840.0" y="549" font-family="Segoe UI, Arial, sans-serif" font-size="11.5" fill="#D65A7A" text-anchor="middle" font-weight="600">reusable blueprint + eval suite</text><rect x="1008" y="388" width="296" height="210" rx="14" fill="#0B1430" opacity="0.10"/><rect x="1008" y="384" width="296" height="210" rx="14" fill="#FFFFFF" stroke="#E1E6F0" stroke-width="1.5"/><path d="M1022,384 h268 a14,14 0 0 1 14,14 v8 h-296 v-8 a14,14 0 0 1 14,-14 z" fill="#2E7D7D"/><circle cx="1050" cy="436" r="22" fill="#2E7D7D"/><circle cx="1050" cy="436" r="5.984000000000001" fill="none" stroke="#FFFFFF" stroke-width="2.2"/><line x1="1057.92" y1="436.0" x2="1060.912" y2="436.0" stroke="#FFFFFF" stroke-width="2.2"/><line x1="1055.6002857069975" y1="441.60028570699745" x2="1057.7159491963075" y2="443.71594919630763" stroke="#FFFFFF" stroke-width="2.2"/><line x1="1050.0" y1="443.92" x2="1050.0" y2="446.912" stroke="#FFFFFF" stroke-width="2.2"/><line x1="1044.3997142930025" y1="441.60028570699745" x2="1042.2840508036925" y2="443.71594919630763" stroke="#FFFFFF" stroke-width="2.2"/><line x1="1042.08" y1="436.0" x2="1039.088" y2="436.0" stroke="#FFFFFF" stroke-width="2.2"/><line x1="1044.3997142930025" y1="430.39971429300255" x2="1042.2840508036925" y2="428.28405080369237" stroke="#FFFFFF" stroke-width="2.2"/><line x1="1050.0" y1="428.08" x2="1050.0" y2="425.088" stroke="#FFFFFF" stroke-width="2.2"/><line x1="1055.6002857069975" y1="430.39971429300255" x2="1057.7159491963075" y2="428.28405080369237" stroke="#FFFFFF" stroke-width="2.2"/><text x="1176.0" y="431.725" font-family="Segoe UI, Arial, sans-serif" font-size="15" fill="#121F3D" text-anchor="middle" font-weight="700">Code</text><text x="1176.0" y="450.475" font-family="Segoe UI, Arial, sans-serif" font-size="15" fill="#121F3D" text-anchor="middle" font-weight="700">developer assist</text><text x="1032" y="502" font-family="Segoe UI, Arial, sans-serif" font-size="12.5" fill="#5A6474" text-anchor="start" font-weight="normal">tooling · tests · migration</text><rect x="1032" y="524" width="248" height="40" rx="9" fill="#F4F6FA"/><text x="1156.0" y="549" font-family="Segoe UI, Arial, sans-serif" font-size="11.5" fill="#2E7D7D" text-anchor="middle" font-weight="600">reusable blueprint + eval suite</text><rect x="1324" y="388" width="296" height="210" rx="14" fill="#0B1430" opacity="0.10"/><rect x="1324" y="384" width="296" height="210" rx="14" fill="#FFFFFF" stroke="#E1E6F0" stroke-width="1.5"/><path d="M1338,384 h268 a14,14 0 0 1 14,14 v8 h-296 v-8 a14,14 0 0 1 14,-14 z" fill="#2EC4D3"/><circle cx="1366" cy="436" r="22" fill="#2EC4D3"/><rect x="1361.072" y="425.44" width="9.856000000000002" height="14.96" rx="4.928000000000001" fill="#FFFFFF"/><path d="M1357.2,436 a8.8,8.8 0 0 0 17.6,0" fill="none" stroke="#FFFFFF" stroke-width="2"/><line x1="1366" y1="444.8" x2="1366" y2="450.08" stroke="#FFFFFF" stroke-width="2"/><text x="1492.0" y="441.1" font-family="Segoe UI, Arial, sans-serif" font-size="15" fill="#121F3D" text-anchor="middle" font-weight="700">Real-time voice</text><text x="1348" y="502" font-family="Segoe UI, Arial, sans-serif" font-size="12.5" fill="#5A6474" text-anchor="start" font-weight="normal">speech-to-speech agents</text><rect x="1348" y="524" width="248" height="40" rx="9" fill="#F4F6FA"/><text x="1472.0" y="549" font-family="Segoe UI, Arial, sans-serif" font-size="11.5" fill="#2EC4D3" text-anchor="middle" font-weight="600">reusable blueprint + eval suite</text></svg>