<svg xmlns="http://www.w3.org/2000/svg" width="1660" height="980" viewBox="0 0 1660 980"><defs><marker id="ah" markerWidth="10" markerHeight="10" refX="7" refY="3.2" orient="auto" markerUnits="userSpaceOnUse"><path d="M0,0 L8,3.2 L0,6.4 z" fill="#5A6474"/></marker></defs><rect width="1660" height="980" fill="#FFFFFF"/><text x="60" y="36" font-family="Segoe UI, Arial, sans-serif" font-size="15" fill="#00A6A6" text-anchor="start" font-weight="700" letter-spacing="2">ENTERPRISE AGENT RUNTIME</text><text x="60" y="70" font-family="Segoe UI, Arial, sans-serif" font-size="30" fill="#121F3D" text-anchor="start" font-weight="800">Durable, governed, interoperable orchestration</text><rect x="60" y="84" width="66" height="5" rx="2.5" fill="#F5A623"/><text x="830" y="150" font-family="Segoe UI, Arial, sans-serif" font-size="13" fill="#5A6474" text-anchor="middle" font-weight="700">Orchestration patterns</text><rect x="560" y="164" width="95.0" height="27" rx="13.5" fill="#F4F6FA"/><text x="607.5" y="181.82" font-family="Segoe UI, Arial, sans-serif" font-size="12.5" fill="#1B3A6B" text-anchor="middle" font-weight="600">sequential</text><rect x="665.0" y="164" width="95.0" height="27" rx="13.5" fill="#F4F6FA"/><text x="712.5" y="181.82" font-family="Segoe UI, Arial, sans-serif" font-size="12.5" fill="#1B3A6B" text-anchor="middle" font-weight="600">concurrent</text><rect x="770.0" y="164" width="95.0" height="27" rx="13.5" fill="#F4F6FA"/><text x="817.5" y="181.82" font-family="Segoe UI, Arial, sans-serif" font-size="12.5" fill="#1B3A6B" text-anchor="middle" font-weight="600">group-chat</text><rect x="875.0" y="164" width="72.5" height="27" rx="13.5" fill="#F4F6FA"/><text x="911.25" y="181.82" font-family="Segoe UI, Arial, sans-serif" font-size="12.5" fill="#1B3A6B" text-anchor="middle" font-weight="600">handoff</text><rect x="957.5" y="164" width="80.0" height="27" rx="13.5" fill="#F4F6FA"/><text x="997.5" y="181.82" font-family="Segoe UI, Arial, sans-serif" font-size="12.5" fill="#1B3A6B" text-anchor="middle" font-weight="600">Magentic</text><rect x="610" y="214" width="440" height="96" rx="16" fill="#0B1430" opacity="0.10"/><rect x="610" y="210" width="440" height="96" rx="16" fill="#121F3D" stroke="#121F3D" stroke-width="1.5"/><circle cx="660" cy="258.0" r="22" fill="rgba(255,255,255,0.16)"/><circle cx="651.2" cy="258.0" r="3.5200000000000005" fill="#FFFFFF"/><circle cx="668.8" cy="250.96" r="3.5200000000000005" fill="#FFFFFF"/><circle cx="668.8" cy="265.04" r="3.5200000000000005" fill="#FFFFFF"/><line x1="654.368" y1="257.12" x2="665.632" y2="251.84" stroke="#FFFFFF" stroke-width="2"/><line x1="654.368" y1="258.88" x2="665.632" y2="264.16" stroke="#FFFFFF" stroke-width="2"/><text x="700" y="250" font-family="Segoe UI, Arial, sans-serif" font-size="19" fill="#FFFFFF" text-anchor="start" font-weight="800">ORCHESTRATOR</text><text x="700" y="276" font-family="Segoe UI, Arial, sans-serif" font-size="12.5" fill="#2EC4D3" text-anchor="start" font-weight="normal">Microsoft Agent Framework · agent registry</text><rect x="60" y="214" width="300" height="150" rx="14" fill="#0B1430" opacity="0.10"/><rect x="60" y="210" width="300" height="150" rx="14" fill="#FFFFFF" stroke="#E1E6F0" stroke-width="1.5"/><path d="M74,210 h272 a14,14 0 0 1 14,14 v6 h-300 v-6 a14,14 0 0 1 14,-14 z" fill="#7A4FB5"/><circle cx="100" cy="250" r="18" fill="#7A4FB5"/><circle cx="100" cy="250" r="7.920000000000001" fill="none" stroke="#FFFFFF" stroke-width="2.2"/><line x1="100" y1="242.08" x2="100" y2="257.92" stroke="#FFFFFF" stroke-width="2"/><circle cx="96.832" cy="248.848" r="1.8" fill="#FFFFFF"/><circle cx="103.168" cy="251.728" r="1.8" fill="#FFFFFF"/><text x="130" y="238" font-family="Segoe UI, Arial, sans-serif" font-size="15.5" fill="#121F3D" text-anchor="start" font-weight="700">Memory</text><text x="90" y="278" font-family="Segoe UI, Arial, sans-serif" font-size="12.5" fill="#1C2433" text-anchor="start" font-weight="normal">• Session memory</text><text x="90" y="304" font-family="Segoe UI, Arial, sans-serif" font-size="12.5" fill="#1C2433" text-anchor="start" font-weight="normal">• User memory</text><text x="90" y="330" font-family="Segoe UI, Arial, sans-serif" font-size="12.5" fill="#1C2433" text-anchor="start" font-weight="normal">• Procedural memory</text><line x1="360" y1="285" x2="606" y2="285" stroke="#7A4FB5" stroke-width="2.2" stroke-dasharray="5,5" marker-end="url(#ah)"/><rect x="1300" y="214" width="300" height="150" rx="14" fill="#0B1430" opacity="0.10"/><rect x="1300" y="210" width="300" height="150" rx="14" fill="#FFFFFF" stroke="#E1E6F0" stroke-width="1.5"/><path d="M1314,210 h272 a14,14 0 0 1 14,14 v6 h-300 v-6 a14,14 0 0 1 14,-14 z" fill="#4A6AA8"/><circle cx="1340" cy="250" r="18" fill="#4A6AA8"/><circle cx="1340" cy="250" r="4.896000000000001" fill="none" stroke="#FFFFFF" stroke-width="2.2"/><line x1="1346.48" y1="250.0" x2="1348.928" y2="250.0" stroke="#FFFFFF" stroke-width="2.2"/><line x1="1344.5820519420888" y1="254.58205194208884" x2="1346.3130493424335" y2="256.3130493424335" stroke="#FFFFFF" stroke-width="2.2"/><line x1="1340.0" y1="256.48" x2="1340.0" y2="258.928" stroke="#FFFFFF" stroke-width="2.2"/><line x1="1335.4179480579112" y1="254.58205194208884" x2="1333.6869506575665" y2="256.3130493424335" stroke="#FFFFFF" stroke-width="2.2"/><line x1="1333.52" y1="250.0" x2="1331.072" y2="250.0" stroke="#FFFFFF" stroke-width="2.2"/><line x1="1335.4179480579112" y1="245.41794805791116" x2="1333.6869506575665" y2="243.6869506575665" stroke="#FFFFFF" stroke-width="2.2"/><line x1="1340.0" y1="243.52" x2="1340.0" y2="241.072" stroke="#FFFFFF" stroke-width="2.2"/><line x1="1344.5820519420888" y1="245.41794805791116" x2="1346.3130493424335" y2="243.6869506575665" stroke="#FFFFFF" stroke-width="2.2"/><text x="1370" y="238" font-family="Segoe UI, Arial, sans-serif" font-size="15" fill="#121F3D" text-anchor="start" font-weight="700">Tools &amp; interop</text><text x="1330" y="278" font-family="Segoe UI, Arial, sans-serif" font-size="12" fill="#1C2433" text-anchor="start" font-weight="normal">• MCP → CRM · HRIS · billing</text><text x="1330" y="304" font-family="Segoe UI, Arial, sans-serif" font-size="12" fill="#1C2433" text-anchor="start" font-weight="normal">• A2A → cross-team agents</text><text x="1330" y="330" font-family="Segoe UI, Arial, sans-serif" font-size="12" fill="#1C2433" text-anchor="start" font-weight="normal">• least-privilege scopes</text><line x1="1300" y1="285" x2="1054" y2="285" stroke="#4A6AA8" stroke-width="2.2" stroke-dasharray="5,5" marker-end="url(#ah)"/><rect x="84.0" y="404" width="196" height="110" rx="14" fill="#0B1430" opacity="0.10"/><rect x="84.0" y="400" width="196" height="110" rx="14" fill="#FFFFFF" stroke="#E1E6F0" stroke-width="1.5"/><path d="M98.0,400 h168 a14,14 0 0 1 14,14 v6 h-196 v-6 a14,14 0 0 1 14,-14 z" fill="#00A6A6"/><circle cx="118.0" cy="455" r="17" fill="#00A6A6"/><circle cx="111.2" cy="455" r="2.176" fill="#FFFFFF"/><circle cx="124.8" cy="449.288" r="1.9040000000000004" fill="#FFFFFF"/><path d="M113.376,455 Q118.0,455 122.896,449.288" fill="none" stroke="#FFFFFF" stroke-width="1.8"/><circle cx="124.8" cy="455.0" r="1.9040000000000004" fill="#FFFFFF"/><path d="M113.376,455 Q118.0,455 122.896,455.0" fill="none" stroke="#FFFFFF" stroke-width="1.8"/><circle cx="124.8" cy="460.712" r="1.9040000000000004" fill="#FFFFFF"/><path d="M113.376,455 Q118.0,455 122.896,460.712" fill="none" stroke="#FFFFFF" stroke-width="1.8"/><text x="198.0" y="451.295" font-family="Segoe UI, Arial, sans-serif" font-size="13" fill="#121F3D" text-anchor="middle" font-weight="700">Intent</text><text x="198.0" y="467.545" font-family="Segoe UI, Arial, sans-serif" font-size="13" fill="#121F3D" text-anchor="middle" font-weight="700">Router</text><line x1="830" y1="306" x2="182.0" y2="398" stroke="#5A6474" stroke-width="1.6" marker-end="url(#ah)"/><rect x="300.0" y="404" width="196" height="110" rx="14" fill="#0B1430" opacity="0.10"/><rect x="300.0" y="400" width="196" height="110" rx="14" fill="#FFFFFF" stroke="#E1E6F0" stroke-width="1.5"/><path d="M314.0,400 h168 a14,14 0 0 1 14,14 v6 h-196 v-6 a14,14 0 0 1 14,-14 z" fill="#1B3A6B"/><circle cx="334.0" cy="455" r="17" fill="#1B3A6B"/><ellipse cx="334.0" cy="449.56" rx="7.480000000000001" ry="2.9920000000000004" fill="none" stroke="#FFFFFF" stroke-width="2"/><path d="M326.52,449.56 V460.44 a7.480000000000001,2.9920000000000004 0 0 0 14.960000000000003,0 V449.56" fill="none" stroke="#FFFFFF" stroke-width="2"/><text x="414.0" y="451.295" font-family="Segoe UI, Arial, sans-serif" font-size="13" fill="#121F3D" text-anchor="middle" font-weight="700">Knowledge</text><text x="414.0" y="467.545" font-family="Segoe UI, Arial, sans-serif" font-size="13" fill="#121F3D" text-anchor="middle" font-weight="700">RAG</text><line x1="830" y1="306" x2="398.0" y2="398" stroke="#5A6474" stroke-width="1.6" marker-end="url(#ah)"/><rect x="516.0" y="404" width="196" height="110" rx="14" fill="#0B1430" opacity="0.10"/><rect x="516.0" y="400" width="196" height="110" rx="14" fill="#FFFFFF" stroke="#E1E6F0" stroke-width="1.5"/><path d="M530.0,400 h168 a14,14 0 0 1 14,14 v6 h-196 v-6 a14,14 0 0 1 14,-14 z" fill="#4A6AA8"/><circle cx="550.0" cy="455" r="17" fill="#4A6AA8"/><circle cx="550.0" cy="455" r="4.6240000000000006" fill="none" stroke="#FFFFFF" stroke-width="2.2"/><line x1="556.12" y1="455.0" x2="558.432" y2="455.0" stroke="#FFFFFF" stroke-width="2.2"/><line x1="554.3274935008617" y1="459.3274935008617" x2="555.9623243789649" y2="460.962324378965" stroke="#FFFFFF" stroke-width="2.2"/><line x1="550.0" y1="461.12" x2="550.0" y2="463.432" stroke="#FFFFFF" stroke-width="2.2"/><line x1="545.6725064991383" y1="459.3274935008617" x2="544.0376756210351" y2="460.962324378965" stroke="#FFFFFF" stroke-width="2.2"/><line x1="543.88" y1="455.0" x2="541.568" y2="455.0" stroke="#FFFFFF" stroke-width="2.2"/><line x1="545.6725064991383" y1="450.6725064991383" x2="544.0376756210351" y2="449.037675621035" stroke="#FFFFFF" stroke-width="2.2"/><line x1="550.0" y1="448.88" x2="550.0" y2="446.568" stroke="#FFFFFF" stroke-width="2.2"/><line x1="554.3274935008617" y1="450.6725064991383" x2="555.9623243789649" y2="449.037675621035" stroke="#FFFFFF" stroke-width="2.2"/><text x="630.0" y="451.295" font-family="Segoe UI, Arial, sans-serif" font-size="13" fill="#121F3D" text-anchor="middle" font-weight="700">Action</text><text x="630.0" y="467.545" font-family="Segoe UI, Arial, sans-serif" font-size="13" fill="#121F3D" text-anchor="middle" font-weight="700">Tooling</text><line x1="830" y1="306" x2="614.0" y2="398" stroke="#5A6474" stroke-width="1.6" marker-end="url(#ah)"/><rect x="732.0" y="404" width="196" height="110" rx="14" fill="#0B1430" opacity="0.10"/><rect x="732.0" y="400" width="196" height="110" rx="14" fill="#FFFFFF" stroke="#E1E6F0" stroke-width="1.5"/><path d="M746.0,400 h168 a14,14 0 0 1 14,14 v6 h-196 v-6 a14,14 0 0 1 14,-14 z" fill="#F5A623"/><circle cx="766.0" cy="455" r="17" fill="#F5A623"/><path d="M766.0,445.48 L774.16,449.56 V456.36 Q774.16,463.16 766.0,465.2 Q757.84,463.16 757.84,456.36 V449.56 Z" fill="none" stroke="#FFFFFF" stroke-width="2.2"/><text x="846.0" y="459.42" font-family="Segoe UI, Arial, sans-serif" font-size="13" fill="#121F3D" text-anchor="middle" font-weight="700">Compliance</text><line x1="830" y1="306" x2="830.0" y2="398" stroke="#5A6474" stroke-width="1.6" marker-end="url(#ah)"/><rect x="948.0" y="404" width="196" height="110" rx="14" fill="#0B1430" opacity="0.10"/><rect x="948.0" y="400" width="196" height="110" rx="14" fill="#FFFFFF" stroke="#E1E6F0" stroke-width="1.5"/><path d="M962.0,400 h168 a14,14 0 0 1 14,14 v6 h-196 v-6 a14,14 0 0 1 14,-14 z" fill="#2E9E5B"/><circle cx="982.0" cy="455" r="17" fill="#2E9E5B"/><circle cx="982.0" cy="455" r="7.480000000000001" fill="none" stroke="#FFFFFF" stroke-width="2.2"/><line x1="982.0" y1="447.52" x2="982.0" y2="462.48" stroke="#FFFFFF" stroke-width="2"/><circle cx="979.008" cy="453.912" r="1.8" fill="#FFFFFF"/><circle cx="984.992" cy="456.632" r="1.8" fill="#FFFFFF"/><text x="1062.0" y="459.42" font-family="Segoe UI, Arial, sans-serif" font-size="13" fill="#121F3D" text-anchor="middle" font-weight="700">Sentiment</text><line x1="830" y1="306" x2="1046.0" y2="398" stroke="#5A6474" stroke-width="1.6" marker-end="url(#ah)"/><rect x="1164.0" y="404" width="196" height="110" rx="14" fill="#0B1430" opacity="0.10"/><rect x="1164.0" y="400" width="196" height="110" rx="14" fill="#FFFFFF" stroke="#E1E6F0" stroke-width="1.5"/><path d="M1178.0,400 h168 a14,14 0 0 1 14,14 v6 h-196 v-6 a14,14 0 0 1 14,-14 z" fill="#7A4FB5"/><circle cx="1198.0" cy="455" r="17" fill="#7A4FB5"/><circle cx="1193.648" cy="451.6" r="3.2640000000000002" fill="#FFFFFF"/><path d="M1189.024,462.48 a4.6240000000000006,4.6240000000000006 0 0 1 9.248000000000001,0 z" fill="#FFFFFF"/><circle cx="1202.352" cy="451.6" r="3.2640000000000002" fill="#FFFFFF"/><path d="M1197.728,462.48 a4.6240000000000006,4.6240000000000006 0 0 1 9.248000000000001,0 z" fill="#FFFFFF"/><text x="1278.0" y="459.42" font-family="Segoe UI, Arial, sans-serif" font-size="13" fill="#121F3D" text-anchor="middle" font-weight="700">Handoff</text><line x1="830" y1="306" x2="1262.0" y2="398" stroke="#5A6474" stroke-width="1.6" marker-end="url(#ah)"/><rect x="1380.0" y="404" width="196" height="110" rx="14" fill="#0B1430" opacity="0.10"/><rect x="1380.0" y="400" width="196" height="110" rx="14" fill="#FFFFFF" stroke="#E1E6F0" stroke-width="1.5"/><path d="M1394.0,400 h168 a14,14 0 0 1 14,14 v6 h-196 v-6 a14,14 0 0 1 14,-14 z" fill="#2E7D7D"/><circle cx="1414.0" cy="455" r="17" fill="#2E7D7D"/><path d="M1404.48,459.76 a9.52,9.52 0 1 1 19.04,0" fill="none" stroke="#FFFFFF" stroke-width="2.2"/><line x1="1414.0" y1="459.76" x2="1420.12" y2="450.92" stroke="#FFFFFF" stroke-width="2.2"/><text x="1494.0" y="459.42" font-family="Segoe UI, Arial, sans-serif" font-size="13" fill="#121F3D" text-anchor="middle" font-weight="700">QA &amp; Scoring</text><line x1="830" y1="306" x2="1478.0" y2="398" stroke="#5A6474" stroke-width="1.6" marker-end="url(#ah)"/><rect x="60" y="560" width="1540" height="74" rx="14" fill="#FBF3E4" stroke="#F0DFBF" stroke-width="1.5"/><circle cx="105" cy="597" r="18" fill="#F5A623"/><circle cx="105" cy="597" r="4.896000000000001" fill="none" stroke="#FFFFFF" stroke-width="2.2"/><line x1="111.48" y1="597.0" x2="113.928" y2="597.0" stroke="#FFFFFF" stroke-width="2.2"/><line x1="109.58205194208882" y1="601.5820519420888" x2="111.3130493424335" y2="603.3130493424335" stroke="#FFFFFF" stroke-width="2.2"/><line x1="105.0" y1="603.48" x2="105.0" y2="605.928" stroke="#FFFFFF" stroke-width="2.2"/><line x1="100.41794805791118" y1="601.5820519420888" x2="98.6869506575665" y2="603.3130493424335" stroke="#FFFFFF" stroke-width="2.2"/><line x1="98.52" y1="597.0" x2="96.072" y2="597.0" stroke="#FFFFFF" stroke-width="2.2"/><line x1="100.41794805791118" y1="592.4179480579112" x2="98.6869506575665" y2="590.6869506575665" stroke="#FFFFFF" stroke-width="2.2"/><line x1="105.0" y1="590.52" x2="105.0" y2="588.072" stroke="#FFFFFF" stroke-width="2.2"/><line x1="109.58205194208882" y1="592.4179480579112" x2="111.3130493424335" y2="590.6869506575665" stroke="#FFFFFF" stroke-width="2.2"/><text x="140" y="592" font-family="Segoe UI, Arial, sans-serif" font-size="15" fill="#5A3D00" text-anchor="start" font-weight="800">Durable execution</text><rect x="140" y="605" width="117.5" height="30" rx="15.0" fill="#FFFFFF"/><text x="198.75" y="624.8" font-family="Segoe UI, Arial, sans-serif" font-size="12.5" fill="#8A5A00" text-anchor="middle" font-weight="600">checkpointing</text><rect x="269.5" y="605" width="125.0" height="30" rx="15.0" fill="#FFFFFF"/><text x="332.0" y="624.8" font-family="Segoe UI, Arial, sans-serif" font-size="12.5" fill="#8A5A00" text-anchor="middle" font-weight="600">pause / resume</text><rect x="406.5" y="605" width="177.5" height="30" rx="15.0" fill="#FFFFFF"/><text x="495.25" y="624.8" font-family="Segoe UI, Arial, sans-serif" font-size="12.5" fill="#8A5A00" text-anchor="middle" font-weight="600">retries &amp; idempotency</text><rect x="596.0" y="605" width="162.5" height="30" rx="15.0" fill="#FFFFFF"/><text x="677.25" y="624.8" font-family="Segoe UI, Arial, sans-serif" font-size="12.5" fill="#8A5A00" text-anchor="middle" font-weight="600">compensation / saga</text><rect x="770.5" y="605" width="222.5" height="30" rx="15.0" fill="#FFFFFF"/><text x="881.75" y="624.8" font-family="Segoe UI, Arial, sans-serif" font-size="12.5" fill="#8A5A00" text-anchor="middle" font-weight="600">human-in-the-loop approvals</text><rect x="60" y="666" width="1540" height="150" rx="16" fill="#F4F6FA" stroke="#E1E6F0" stroke-width="1.5"/><rect x="60" y="666" width="1540" height="44" rx="16" fill="#121F3D"/><rect x="60" y="694" width="1540" height="16" rx="0" fill="#121F3D"/><text x="830" y="695" font-family="Segoe UI, Arial, sans-serif" font-size="13" fill="#FFFFFF" text-anchor="middle" font-weight="700">DETERMINISTIC GUARDRAILS  +  UNIFIED OPENTELEMETRY TRACING (every model call · tool · sub-agent hop · handoff)</text><rect x="150" y="740" width="261.79999999999995" height="34" rx="17.0" fill="#FFFFFF"/><text x="280.9" y="762.44" font-family="Segoe UI, Arial, sans-serif" font-size="13" fill="#1B3A6B" text-anchor="middle" font-weight="600">Content Safety / prompt shields</text><rect x="424.79999999999995" y="740" width="121.39999999999999" height="34" rx="17.0" fill="#FFFFFF"/><text x="485.49999999999994" y="762.44" font-family="Segoe UI, Arial, sans-serif" font-size="13" fill="#1B3A6B" text-anchor="middle" font-weight="600">PII redaction</text><rect x="559.1999999999999" y="740" width="191.6" height="34" rx="17.0" fill="#FFFFFF"/><text x="654.9999999999999" y="762.44" font-family="Segoe UI, Arial, sans-serif" font-size="13" fill="#1B3A6B" text-anchor="middle" font-weight="600">policy (do/ don't say)</text><rect x="763.8" y="740" width="113.6" height="34" rx="17.0" fill="#FFFFFF"/><text x="820.5999999999999" y="762.44" font-family="Segoe UI, Arial, sans-serif" font-size="13" fill="#1B3A6B" text-anchor="middle" font-weight="600">groundedness</text><rect x="890.4" y="740" width="160.4" height="34" rx="17.0" fill="#FFFFFF"/><text x="970.6" y="762.44" font-family="Segoe UI, Arial, sans-serif" font-size="13" fill="#1B3A6B" text-anchor="middle" font-weight="600">graduated autonomy</text><rect x="1063.8" y="740" width="176.0" height="34" rx="17.0" fill="#FFFFFF"/><text x="1151.8" y="762.44" font-family="Segoe UI, Arial, sans-serif" font-size="13" fill="#1B3A6B" text-anchor="middle" font-weight="600">per-hop trace + eval</text><text x="830" y="796" font-family="Segoe UI, Arial, sans-serif" font-size="12.5" fill="#5A6474" text-anchor="middle" font-weight="normal" font-style="italic">Probabilistic agents, wrapped in deterministic controls — with an audit trail for every action.</text></svg>