<svg xmlns="http://www.w3.org/2000/svg" width="1660" height="840" viewBox="0 0 1660 840"><defs><marker id="ah" markerWidth="10" markerHeight="10" refX="7" refY="3.2" orient="auto" markerUnits="userSpaceOnUse"><path d="M0,0 L8,3.2 L0,6.4 z" fill="#5A6474"/></marker></defs><rect width="1660" height="840" fill="#FFFFFF"/><text x="60" y="36" font-family="Segoe UI, Arial, sans-serif" font-size="15" fill="#00A6A6" text-anchor="start" font-weight="700" letter-spacing="2">DATA AT SCALE</text><text x="60" y="70" font-family="Segoe UI, Arial, sans-serif" font-size="30" fill="#121F3D" text-anchor="start" font-weight="800">Enterprise data platform feeding grounded AI</text><rect x="60" y="84" width="66" height="5" rx="2.5" fill="#F5A623"/><rect x="60" y="174" width="196" height="170" rx="14" fill="#0B1430" opacity="0.10"/><rect x="60" y="170" width="196" height="170" rx="14" fill="#FFFFFF" stroke="#E1E6F0" stroke-width="1.5"/><path d="M74,170 h168 a14,14 0 0 1 14,14 v8 h-196 v-8 a14,14 0 0 1 14,-14 z" fill="#5A6474"/><circle cx="158.0" cy="226" r="23" fill="#5A6474"/><rect x="151.56" y="219.56" width="5.5200000000000005" height="5.5200000000000005" rx="2" fill="none" stroke="#FFFFFF" stroke-width="1.8"/><rect x="151.56" y="226.92" width="5.5200000000000005" height="5.5200000000000005" rx="2" fill="none" stroke="#FFFFFF" stroke-width="1.8"/><rect x="158.92" y="219.56" width="5.5200000000000005" height="5.5200000000000005" rx="2" fill="none" stroke="#FFFFFF" stroke-width="1.8"/><rect x="158.92" y="226.92" width="5.5200000000000005" height="5.5200000000000005" rx="2" fill="none" stroke="#FFFFFF" stroke-width="1.8"/><text x="158.0" y="283.44" font-family="Segoe UI, Arial, sans-serif" font-size="16" fill="#121F3D" text-anchor="middle" font-weight="800">Sources</text><text x="158.0" y="306.865" font-family="Segoe UI, Arial, sans-serif" font-size="11" fill="#5A6474" text-anchor="middle" font-weight="normal">voice</text><text x="158.0" y="320.615" font-family="Segoe UI, Arial, sans-serif" font-size="11" fill="#5A6474" text-anchor="middle" font-weight="normal">chat · docs · CRM · systems</text><line x1="260" y1="255.0" x2="284" y2="255.0" stroke="#F5A623" stroke-width="2.6" marker-end="url(#ah)"/><rect x="288" y="174" width="196" height="170" rx="14" fill="#0B1430" opacity="0.10"/><rect x="288" y="170" width="196" height="170" rx="14" fill="#FFFFFF" stroke="#E1E6F0" stroke-width="1.5"/><path d="M302,170 h168 a14,14 0 0 1 14,14 v8 h-196 v-8 a14,14 0 0 1 14,-14 z" fill="#1B3A6B"/><circle cx="386.0" cy="226" r="23" fill="#1B3A6B"/><circle cx="376.8" cy="226" r="3.6800000000000006" fill="#FFFFFF"/><circle cx="395.2" cy="218.64" r="3.6800000000000006" fill="#FFFFFF"/><circle cx="395.2" cy="233.36" r="3.6800000000000006" fill="#FFFFFF"/><line x1="380.112" y1="225.08" x2="391.888" y2="219.56" stroke="#FFFFFF" stroke-width="2"/><line x1="380.112" y1="226.92" x2="391.888" y2="232.44" stroke="#FFFFFF" stroke-width="2"/><text x="386.0" y="283.44" font-family="Segoe UI, Arial, sans-serif" font-size="16" fill="#121F3D" text-anchor="middle" font-weight="800">Ingestion</text><text x="386.0" y="313.74" font-family="Segoe UI, Arial, sans-serif" font-size="11" fill="#5A6474" text-anchor="middle" font-weight="normal">Event Hubs (stream) + batch</text><line x1="488" y1="255.0" x2="512" y2="255.0" stroke="#F5A623" stroke-width="2.6" marker-end="url(#ah)"/><rect x="516" y="174" width="196" height="170" rx="14" fill="#0B1430" opacity="0.10"/><rect x="516" y="170" width="196" height="170" rx="14" fill="#FFFFFF" stroke="#E1E6F0" stroke-width="1.5"/><path d="M530,170 h168 a14,14 0 0 1 14,14 v8 h-196 v-8 a14,14 0 0 1 14,-14 z" fill="#3E5C99"/><circle cx="614.0" cy="226" r="23" fill="#3E5C99"/><path d="M604.8,230.6 a5.5200000000000005,5.5200000000000005 0 0 1 2.7600000000000002,-10.120000000000003 a6.44,6.44 0 0 1 12.88,-0.9200000000000002 a5.152000000000001,5.152000000000001 0 0 1 1.8400000000000003,11.408000000000001 z" fill="none" stroke="#FFFFFF" stroke-width="2"/><text x="614.0" y="283.44" font-family="Segoe UI, Arial, sans-serif" font-size="16" fill="#121F3D" text-anchor="middle" font-weight="800">Lakehouse</text><text x="614.0" y="313.74" font-family="Segoe UI, Arial, sans-serif" font-size="11" fill="#5A6474" text-anchor="middle" font-weight="normal">Microsoft Fabric / OneLake</text><line x1="716" y1="255.0" x2="740" y2="255.0" stroke="#F5A623" stroke-width="2.6" marker-end="url(#ah)"/><rect x="744" y="174" width="196" height="170" rx="14" fill="#0B1430" opacity="0.10"/><rect x="744" y="170" width="196" height="170" rx="14" fill="#FFFFFF" stroke="#E1E6F0" stroke-width="1.5"/><path d="M758,170 h168 a14,14 0 0 1 14,14 v8 h-196 v-8 a14,14 0 0 1 14,-14 z" fill="#00A6A6"/><circle cx="842.0" cy="226" r="23" fill="#00A6A6"/><circle cx="842.0" cy="226" r="6.256000000000001" fill="none" stroke="#FFFFFF" stroke-width="2.2"/><line x1="850.28" y1="226.0" x2="853.408" y2="226.0" stroke="#FFFFFF" stroke-width="2.2"/><line x1="847.8548441482246" y1="231.85484414822463" x2="850.0666741597761" y2="234.06667415977614" stroke="#FFFFFF" stroke-width="2.2"/><line x1="842.0" y1="234.28" x2="842.0" y2="237.40800000000002" stroke="#FFFFFF" stroke-width="2.2"/><line x1="836.1451558517754" y1="231.85484414822463" x2="833.9333258402239" y2="234.06667415977614" stroke="#FFFFFF" stroke-width="2.2"/><line x1="833.72" y1="226.0" x2="830.592" y2="226.0" stroke="#FFFFFF" stroke-width="2.2"/><line x1="836.1451558517754" y1="220.1451558517754" x2="833.9333258402239" y2="217.93332584022386" stroke="#FFFFFF" stroke-width="2.2"/><line x1="842.0" y1="217.72" x2="842.0" y2="214.59199999999998" stroke="#FFFFFF" stroke-width="2.2"/><line x1="847.8548441482246" y1="220.14515585177537" x2="850.0666741597761" y2="217.93332584022386" stroke="#FFFFFF" stroke-width="2.2"/><text x="842.0" y="283.44" font-family="Segoe UI, Arial, sans-serif" font-size="16" fill="#121F3D" text-anchor="middle" font-weight="800">Processing</text><text x="842.0" y="306.865" font-family="Segoe UI, Arial, sans-serif" font-size="11" fill="#5A6474" text-anchor="middle" font-weight="normal">chunk</text><text x="842.0" y="320.615" font-family="Segoe UI, Arial, sans-serif" font-size="11" fill="#5A6474" text-anchor="middle" font-weight="normal">enrich · vectorize · redact PII</text><line x1="944" y1="255.0" x2="968" y2="255.0" stroke="#F5A623" stroke-width="2.6" marker-end="url(#ah)"/><rect x="972" y="174" width="196" height="170" rx="14" fill="#0B1430" opacity="0.10"/><rect x="972" y="170" width="196" height="170" rx="14" fill="#FFFFFF" stroke="#E1E6F0" stroke-width="1.5"/><path d="M986,170 h168 a14,14 0 0 1 14,14 v8 h-196 v-8 a14,14 0 0 1 14,-14 z" fill="#4A6AA8"/><circle cx="1070.0" cy="226" r="23" fill="#4A6AA8"/><ellipse cx="1070.0" cy="218.64" rx="10.120000000000003" ry="4.048000000000001" fill="none" stroke="#FFFFFF" stroke-width="2"/><path d="M1059.88,218.64 V233.36 a10.120000000000003,4.048000000000001 0 0 0 20.240000000000006,0 V218.64" fill="none" stroke="#FFFFFF" stroke-width="2"/><text x="1070.0" y="283.44" font-family="Segoe UI, Arial, sans-serif" font-size="16" fill="#121F3D" text-anchor="middle" font-weight="800">Stores</text><text x="1070.0" y="306.865" font-family="Segoe UI, Arial, sans-serif" font-size="11" fill="#5A6474" text-anchor="middle" font-weight="normal">AI Search vectors</text><text x="1070.0" y="320.615" font-family="Segoe UI, Arial, sans-serif" font-size="11" fill="#5A6474" text-anchor="middle" font-weight="normal">Cosmos</text><line x1="1172" y1="255.0" x2="1196" y2="255.0" stroke="#F5A623" stroke-width="2.6" marker-end="url(#ah)"/><rect x="1200" y="174" width="196" height="170" rx="14" fill="#0B1430" opacity="0.10"/><rect x="1200" y="170" width="196" height="170" rx="14" fill="#FFFFFF" stroke="#E1E6F0" stroke-width="1.5"/><path d="M1214,170 h168 a14,14 0 0 1 14,14 v8 h-196 v-8 a14,14 0 0 1 14,-14 z" fill="#2EC4D3"/><circle cx="1298.0" cy="226" r="23" fill="#2EC4D3"/><circle cx="1288.8" cy="226" r="2.9440000000000004" fill="#FFFFFF"/><circle cx="1307.2" cy="218.272" r="2.5760000000000005" fill="#FFFFFF"/><path d="M1291.744,226 Q1298.0,226 1304.624,218.272" fill="none" stroke="#FFFFFF" stroke-width="1.8"/><circle cx="1307.2" cy="226.0" r="2.5760000000000005" fill="#FFFFFF"/><path d="M1291.744,226 Q1298.0,226 1304.624,226.0" fill="none" stroke="#FFFFFF" stroke-width="1.8"/><circle cx="1307.2" cy="233.728" r="2.5760000000000005" fill="#FFFFFF"/><path d="M1291.744,226 Q1298.0,226 1304.624,233.728" fill="none" stroke="#FFFFFF" stroke-width="1.8"/><text x="1298.0" y="283.44" font-family="Segoe UI, Arial, sans-serif" font-size="16" fill="#121F3D" text-anchor="middle" font-weight="800">Serving</text><text x="1298.0" y="313.74" font-family="Segoe UI, Arial, sans-serif" font-size="11" fill="#5A6474" text-anchor="middle" font-weight="normal">RAG retrieval · grounding</text><line x1="1400" y1="255.0" x2="1424" y2="255.0" stroke="#F5A623" stroke-width="2.6" marker-end="url(#ah)"/><rect x="1428" y="174" width="196" height="170" rx="14" fill="#0B1430" opacity="0.10"/><rect x="1428" y="170" width="196" height="170" rx="14" fill="#FFFFFF" stroke="#E1E6F0" stroke-width="1.5"/><path d="M1442,170 h168 a14,14 0 0 1 14,14 v8 h-196 v-8 a14,14 0 0 1 14,-14 z" fill="#2E9E5B"/><circle cx="1526.0" cy="226" r="23" fill="#2E9E5B"/><circle cx="1526.0" cy="226" r="10.120000000000003" fill="none" stroke="#FFFFFF" stroke-width="2.2"/><line x1="1526.0" y1="215.88" x2="1526.0" y2="236.12" stroke="#FFFFFF" stroke-width="2"/><circle cx="1521.952" cy="224.528" r="1.8" fill="#FFFFFF"/><circle cx="1530.048" cy="228.208" r="1.8" fill="#FFFFFF"/><text x="1526.0" y="283.44" font-family="Segoe UI, Arial, sans-serif" font-size="16" fill="#121F3D" text-anchor="middle" font-weight="800">Consumers</text><text x="1526.0" y="306.865" font-family="Segoe UI, Arial, sans-serif" font-size="11" fill="#5A6474" text-anchor="middle" font-weight="normal">agents</text><text x="1526.0" y="320.615" font-family="Segoe UI, Arial, sans-serif" font-size="11" fill="#5A6474" text-anchor="middle" font-weight="normal">PI Index · analytics</text><text x="370.0" y="374" font-family="Segoe UI, Arial, sans-serif" font-size="12.5" fill="#5A6474" text-anchor="middle" font-weight="normal" font-style="italic">batch + streaming lanes · incremental / CDC refresh · partitioned per domain &amp; tenant</text><rect x="60" y="500" width="1540" height="90" rx="16" fill="#EEF3FF" stroke="#C9D6F0" stroke-width="1.5"/><circle cx="110" cy="545" r="20" fill="#1B3A6B"/><path d="M110,533.8 L119.6,538.6 V546.6 Q119.6,554.6 110,557.0 Q100.4,554.6 100.4,546.6 V538.6 Z" fill="none" stroke="#FFFFFF" stroke-width="2.2"/><text x="148" y="540" font-family="Segoe UI, Arial, sans-serif" font-size="16" fill="#121F3D" text-anchor="start" font-weight="800">Microsoft Purview</text><rect x="148" y="555" width="137.0" height="32" rx="16.0" fill="#FFFFFF"/><text x="216.5" y="576.12" font-family="Segoe UI, Arial, sans-serif" font-size="13" fill="#1B3A6B" text-anchor="middle" font-weight="600">data governance</text><rect x="298.0" y="555" width="74.6" height="32" rx="16.0" fill="#FFFFFF"/><text x="335.3" y="576.12" font-family="Segoe UI, Arial, sans-serif" font-size="13" fill="#1B3A6B" text-anchor="middle" font-weight="600">lineage</text><rect x="385.6" y="555" width="129.2" height="32" rx="16.0" fill="#FFFFFF"/><text x="450.20000000000005" y="576.12" font-family="Segoe UI, Arial, sans-serif" font-size="13" fill="#1B3A6B" text-anchor="middle" font-weight="600">classification</text><rect x="527.8" y="555" width="43.4" height="32" rx="16.0" fill="#FFFFFF"/><text x="549.5" y="576.12" font-family="Segoe UI, Arial, sans-serif" font-size="13" fill="#1B3A6B" text-anchor="middle" font-weight="600">DLP</text><rect x="584.1999999999999" y="555" width="90.2" height="32" rx="16.0" fill="#FFFFFF"/><text x="629.3" y="576.12" font-family="Segoe UI, Arial, sans-serif" font-size="13" fill="#1B3A6B" text-anchor="middle" font-weight="600">retention</text><rect x="687.4" y="555" width="113.6" height="32" rx="16.0" fill="#FFFFFF"/><text x="744.1999999999999" y="576.12" font-family="Segoe UI, Arial, sans-serif" font-size="13" fill="#1B3A6B" text-anchor="middle" font-weight="600">PII handling</text><line x1="158.0" y1="343" x2="158.0" y2="498" stroke="#C9D6F0" stroke-width="1.4"/><line x1="842.0" y1="343" x2="842.0" y2="498" stroke="#C9D6F0" stroke-width="1.4"/><line x1="1070.0" y1="343" x2="1070.0" y2="498" stroke="#C9D6F0" stroke-width="1.4"/><line x1="1298.0" y1="343" x2="1298.0" y2="498" stroke="#C9D6F0" stroke-width="1.4"/><text x="60" y="630" font-family="Segoe UI, Arial, sans-serif" font-size="12.5" fill="#121F3D" text-anchor="start" font-weight="600">Governance and security are applied across the whole pipeline — not bolted on at the end.</text></svg>