<svg xmlns="http://www.w3.org/2000/svg" width="1660" height="820" viewBox="0 0 1660 820"><defs><marker id="ah" markerWidth="10" markerHeight="10" refX="7" refY="3.2" orient="auto" markerUnits="userSpaceOnUse"><path d="M0,0 L8,3.2 L0,6.4 z" fill="#5A6474"/></marker></defs><rect width="1660" height="820" fill="#FFFFFF"/><text x="60" y="36" font-family="Segoe UI, Arial, sans-serif" font-size="15" fill="#00A6A6" text-anchor="start" font-weight="700" letter-spacing="2">MODEL STRATEGY</text><text x="60" y="70" font-family="Segoe UI, Arial, sans-serif" font-size="30" fill="#121F3D" text-anchor="start" font-weight="800">Ride the frontier without rewrites</text><rect x="60" y="84" width="66" height="5" rx="2.5" fill="#F5A623"/><rect x="60" y="164" width="360" height="470" rx="14" fill="#0B1430" opacity="0.10"/><rect x="60" y="160" width="360" height="470" rx="14" fill="#FFFFFF" stroke="#E1E6F0" stroke-width="1.5"/><path d="M74,160 h332 a14,14 0 0 1 14,14 v6 h-360 v-6 a14,14 0 0 1 14,-14 z" fill="#1B3A6B"/><text x="240" y="200" font-family="Segoe UI, Arial, sans-serif" font-size="17" fill="#121F3D" text-anchor="middle" font-weight="800">Model catalog</text><rect x="84" y="228" width="312" height="44" rx="9" fill="#FFFFFF" stroke="#E1E6F0" stroke-width="1.5"/><circle cx="108" cy="250" r="6" fill="#1B3A6B"/><text x="124" y="247" font-family="Segoe UI, Arial, sans-serif" font-size="13.5" fill="#121F3D" text-anchor="start" font-weight="700">GPT-5.5</text><text x="124" y="265" font-family="Segoe UI, Arial, sans-serif" font-size="11.5" fill="#5A6474" text-anchor="start" font-weight="normal">frontier · agentic</text><rect x="84" y="282" width="312" height="44" rx="9" fill="#FFFFFF" stroke="#E1E6F0" stroke-width="1.5"/><circle cx="108" cy="304" r="6" fill="#1B3A6B"/><text x="124" y="301" font-family="Segoe UI, Arial, sans-serif" font-size="13.5" fill="#121F3D" text-anchor="start" font-weight="700">GPT-5.4 / 5.2</text><text x="124" y="319" font-family="Segoe UI, Arial, sans-serif" font-size="11.5" fill="#5A6474" text-anchor="start" font-weight="normal">reasoning · 272k ctx</text><rect x="84" y="336" width="312" height="44" rx="9" fill="#FFFFFF" stroke="#E1E6F0" stroke-width="1.5"/><circle cx="108" cy="358" r="6" fill="#1B3A6B"/><text x="124" y="355" font-family="Segoe UI, Arial, sans-serif" font-size="13.5" fill="#121F3D" text-anchor="start" font-weight="700">GPT-5.5 Instant</text><text x="124" y="373" font-family="Segoe UI, Arial, sans-serif" font-size="11.5" fill="#5A6474" text-anchor="start" font-weight="normal">low-latency chat</text><rect x="84" y="390" width="312" height="44" rx="9" fill="#FFFFFF" stroke="#E1E6F0" stroke-width="1.5"/><circle cx="108" cy="412" r="6" fill="#1B3A6B"/><text x="124" y="409" font-family="Segoe UI, Arial, sans-serif" font-size="13.5" fill="#121F3D" text-anchor="start" font-weight="700">gpt-realtime-1.5</text><text x="124" y="427" font-family="Segoe UI, Arial, sans-serif" font-size="11.5" fill="#5A6474" text-anchor="start" font-weight="normal">speech-to-speech</text><rect x="84" y="444" width="312" height="44" rx="9" fill="#FFFFFF" stroke="#E1E6F0" stroke-width="1.5"/><circle cx="108" cy="466" r="6" fill="#1B3A6B"/><text x="124" y="463" font-family="Segoe UI, Arial, sans-serif" font-size="13.5" fill="#121F3D" text-anchor="start" font-weight="700">o-series</text><text x="124" y="481" font-family="Segoe UI, Arial, sans-serif" font-size="11.5" fill="#5A6474" text-anchor="start" font-weight="normal">deep reasoning</text><rect x="84" y="498" width="312" height="44" rx="9" fill="#FFFFFF" stroke="#E1E6F0" stroke-width="1.5"/><circle cx="108" cy="520" r="6" fill="#1B3A6B"/><text x="124" y="517" font-family="Segoe UI, Arial, sans-serif" font-size="13.5" fill="#121F3D" text-anchor="start" font-weight="700">Open-weight (Llama/Phi)</text><text x="124" y="535" font-family="Segoe UI, Arial, sans-serif" font-size="11.5" fill="#5A6474" text-anchor="start" font-weight="normal">cost / edge tiers</text><rect x="84" y="552" width="312" height="44" rx="9" fill="#FFFFFF" stroke="#E1E6F0" stroke-width="1.5"/><circle cx="108" cy="574" r="6" fill="#1B3A6B"/><text x="124" y="571" font-family="Segoe UI, Arial, sans-serif" font-size="13.5" fill="#121F3D" text-anchor="start" font-weight="700">Fine-tuned / distilled</text><text x="124" y="589" font-family="Segoe UI, Arial, sans-serif" font-size="11.5" fill="#5A6474" text-anchor="start" font-weight="normal">task-specialized</text><rect x="500" y="264" width="340" height="250" rx="14" fill="#0B1430" opacity="0.10"/><rect x="500" y="260" width="340" height="250" rx="14" fill="#FFFFFF" stroke="#E1E6F0" stroke-width="1.5"/><path d="M514,260 h312 a14,14 0 0 1 14,14 v6 h-340 v-6 a14,14 0 0 1 14,-14 z" fill="#F5A623"/><circle cx="670" cy="318" r="28" fill="#F5A623"/><circle cx="658.8" cy="318" r="3.5840000000000005" fill="#FFFFFF"/><circle cx="681.2" cy="308.592" r="3.1360000000000006" fill="#FFFFFF"/><path d="M662.384,318 Q670,318 678.064,308.592" fill="none" stroke="#FFFFFF" stroke-width="1.8"/><circle cx="681.2" cy="318.0" r="3.1360000000000006" fill="#FFFFFF"/><path d="M662.384,318 Q670,318 678.064,318.0" fill="none" stroke="#FFFFFF" stroke-width="1.8"/><circle cx="681.2" cy="327.408" r="3.1360000000000006" fill="#FFFFFF"/><path d="M662.384,318 Q670,318 678.064,327.408" fill="none" stroke="#FFFFFF" stroke-width="1.8"/><text x="670" y="386.3" font-family="Segoe UI, Arial, sans-serif" font-size="20" fill="#121F3D" text-anchor="middle" font-weight="800">Model</text><text x="670" y="411.3" font-family="Segoe UI, Arial, sans-serif" font-size="20" fill="#121F3D" text-anchor="middle" font-weight="800">Router</text><text x="670" y="436" font-family="Segoe UI, Arial, sans-serif" font-size="11.5" fill="#5A6474" text-anchor="middle" font-weight="normal">routes by task · quality bar · cost · latency</text><text x="670" y="462" font-family="Segoe UI, Arial, sans-serif" font-size="11.5" fill="#5A6474" text-anchor="middle" font-weight="normal">+ prompt caching</text><line x1="420" y1="395" x2="498" y2="395" stroke="#5A6474" stroke-width="2.6" marker-end="url(#ah)"/><rect x="920" y="264" width="340" height="250" rx="14" fill="#0B1430" opacity="0.10"/><rect x="920" y="260" width="340" height="250" rx="14" fill="#FFFFFF" stroke="#E1E6F0" stroke-width="1.5"/><path d="M934,260 h312 a14,14 0 0 1 14,14 v6 h-340 v-6 a14,14 0 0 1 14,-14 z" fill="#00A6A6"/><circle cx="1090" cy="318" r="26" fill="#00A6A6"/><circle cx="1079.6" cy="318" r="4.16" fill="#FFFFFF"/><circle cx="1100.4" cy="309.68" r="4.16" fill="#FFFFFF"/><circle cx="1100.4" cy="326.32" r="4.16" fill="#FFFFFF"/><line x1="1083.344" y1="316.96" x2="1096.656" y2="310.72" stroke="#FFFFFF" stroke-width="2"/><line x1="1083.344" y1="319.04" x2="1096.656" y2="325.28" stroke="#FFFFFF" stroke-width="2"/><text x="1090" y="386.585" font-family="Segoe UI, Arial, sans-serif" font-size="19" fill="#121F3D" text-anchor="middle" font-weight="800">Agents &amp;</text><text x="1090" y="410.335" font-family="Segoe UI, Arial, sans-serif" font-size="19" fill="#121F3D" text-anchor="middle" font-weight="800">use cases</text><text x="1090" y="436" font-family="Segoe UI, Arial, sans-serif" font-size="11.5" fill="#5A6474" text-anchor="middle" font-weight="normal">cheapest model that meets</text><text x="1090" y="456" font-family="Segoe UI, Arial, sans-serif" font-size="11.5" fill="#5A6474" text-anchor="middle" font-weight="normal">the measured quality bar</text><line x1="840" y1="395" x2="918" y2="395" stroke="#5A6474" stroke-width="2.6" marker-end="url(#ah)"/><rect x="60" y="580" width="1540" height="150" rx="16" fill="#F4F6FA" stroke="#E1E6F0" stroke-width="1.5"/><rect x="60" y="580" width="1540" height="44" rx="16" fill="#121F3D"/><rect x="60" y="608" width="1540" height="16" rx="0" fill="#121F3D"/><text x="830" y="609" font-family="Segoe UI, Arial, sans-serif" font-size="13" fill="#FFFFFF" text-anchor="middle" font-weight="800">FRONTIER-MODEL ADOPTION LOOP — new models absorbed automatically</text><rect x="140" y="654" width="176.0" height="34" rx="17.0" fill="#FFFFFF"/><text x="228.0" y="676.44" font-family="Segoe UI, Arial, sans-serif" font-size="13" fill="#1B3A6B" text-anchor="middle" font-weight="600">New model in catalog</text><text x="324.0" y="674" font-family="Segoe UI, Arial, sans-serif" font-size="16" fill="#F5A623" text-anchor="middle" font-weight="800">›</text><rect x="350.0" y="654" width="199.4" height="34" rx="17.0" fill="#FFFFFF"/><text x="449.7" y="676.44" font-family="Segoe UI, Arial, sans-serif" font-size="13" fill="#1B3A6B" text-anchor="middle" font-weight="600">Evaluate vs golden sets</text><text x="557.4" y="674" font-family="Segoe UI, Arial, sans-serif" font-size="16" fill="#F5A623" text-anchor="middle" font-weight="800">›</text><rect x="583.4" y="654" width="176.0" height="34" rx="17.0" fill="#FFFFFF"/><text x="671.4" y="676.44" font-family="Segoe UI, Arial, sans-serif" font-size="13" fill="#1B3A6B" text-anchor="middle" font-weight="600">Shadow in production</text><text x="767.4" y="674" font-family="Segoe UI, Arial, sans-serif" font-size="16" fill="#F5A623" text-anchor="middle" font-weight="800">›</text><rect x="793.4" y="654" width="215.0" height="34" rx="17.0" fill="#FFFFFF"/><text x="900.9" y="676.44" font-family="Segoe UI, Arial, sans-serif" font-size="13" fill="#1B3A6B" text-anchor="middle" font-weight="600">Router promotes if better</text><text x="1016.4" y="674" font-family="Segoe UI, Arial, sans-serif" font-size="16" fill="#F5A623" text-anchor="middle" font-weight="800">›</text><rect x="1042.4" y="654" width="191.6" height="34" rx="17.0" fill="#FFFFFF"/><text x="1138.2" y="676.44" font-family="Segoe UI, Arial, sans-serif" font-size="13" fill="#1B3A6B" text-anchor="middle" font-weight="600">Adopt — no app rewrite</text><text x="830" y="710" font-family="Segoe UI, Arial, sans-serif" font-size="12.5" fill="#5A6474" text-anchor="middle" font-weight="normal" font-style="italic">AFNI pins to capabilities and evaluations, not to a single model version.</text></svg>